<svg xmlns="http://www.w3.org/2000/svg" viewBox="0 0 702.73 202.26"><path fill="none" stroke="#063D2A" stroke-miterlimit="10" stroke-width="3" d="M49.04 133.2V3.13h67.57v19.56H70.6v33.88h34.24v18.84H70.6v57.79z"/><g fill="none" stroke="#063D2A" stroke-miterlimit="10" stroke-width="3"><path d="M123.5 68.16c0-43.11 12.5-66.66 42.93-66.66s43.11 23.55 43.11 66.66-13.22 66.66-43.11 66.66-42.93-23.91-42.93-66.66Zm64.13 0c0-33.88-7.06-48-21.19-48s-21.01 14.13-21.01 48 7.61 48.19 21.01 48.19 21.19-13.04 21.19-48.19Z"/><path d="M284.73 3.13h21.19v88.58c0 28.08-12.32 42.93-40.4 42.93s-39.13-14.85-39.13-42.93V3.13h21.56v91.48c0 15.04 5.62 21.56 17.93 21.56s18.84-6.52 18.84-21.56V3.13Z"/><path d="m389.07 133.2-41.48-89.85h-.36v89.85h-19.2V3.13h24.82l35.69 78.98h.36V3.13h19.56V133.2h-19.38Z"/><path d="M431.1 133.2V3.13h29.89c35.87 0 52.35 18.12 52.35 63.58 0 42.75-14.49 66.48-52.72 66.48h-29.53Zm31.16-19.93c20.47 0 29.17-14.49 29.17-46.38s-9.6-43.84-28.62-43.84h-9.78v90.21h9.24Z"/><path d="m587.62 133.2-18.66-53.62h-16.49v53.62h-21.56V3.13h34.42c27.9 0 41.3 10.69 41.3 36.05 0 16.49-7.07 26.63-18.3 31.7l22.64 62.32H587.6Zm-22.83-71.92c9.78 0 19.93-3.44 19.93-20.11 0-18.3-10.33-19.38-20.11-19.38h-12.14v39.49z"/><path d="M646.31 133.2V80.67L614.25 3.13h22.83l19.75 52.9h.36l20.83-52.9h22.46l-32.61 77.53v52.53h-21.56Z"/></g><path fill="#063D2A" d="m26.89 117.42-18.18 3.05v.08l18.18 2.9v4.46l-26.7 5.35v-4.42l18.3-3.12v-.07l-18.3-3.06v-4.35l18.26-3.01v-.07L.19 112.03v-4.35l26.7 5.32z"/><g fill="#063D2A"><path d="M27.22 101.27c0 4.65-3.09 6.92-10.11 6.92-6.25 0-9.93-2.42-9.93-6.99 0-5.02 3.98-6.77 8.92-6.77.56 0 1.19 0 1.9.04v9.93c4.05-.15 5.95-1 5.95-3.31 0-1.79-1.23-2.75-3.24-3.31l.67-3.31c4.09 1.04 5.84 3.31 5.84 6.8m-12.09 3.09v-6.14c-2.86 0-4.8.89-4.8 2.97 0 1.93 1.71 2.9 4.8 3.16Z"/><path d="M4.39 91.42H0v-4.09h4.39zm22.5-.08H7.55V87.4h19.34z"/><path d="M12.68 75.68c-1.75.63-2.38 1.49-2.38 2.83s.78 2.08 1.9 2.08c3.53 0 2.86-8.52 9.52-8.52 3.53 0 5.5 2.38 5.5 6.25s-1.56 5.47-5.02 6.4l-.89-3.24c1.93-.67 2.83-1.52 2.83-3.2 0-1.45-.78-2.42-2.08-2.42-4.09 0-3.31 8.4-9.67 8.4-3.12 0-5.21-2.19-5.21-5.73s1.6-5.17 4.65-5.99l.85 3.12Z"/><path d="M12.68 61.51c-1.75.63-2.38 1.49-2.38 2.83s.78 2.08 1.9 2.08c3.53 0 2.86-8.52 9.52-8.52 3.53 0 5.5 2.38 5.5 6.25s-1.56 5.47-5.02 6.4l-.89-3.24c1.93-.67 2.83-1.52 2.83-3.2 0-1.45-.78-2.42-2.08-2.42-4.09 0-3.31 8.4-9.67 8.4-3.12 0-5.21-2.19-5.21-5.73s1.6-5.17 4.65-5.99l.85 3.12Z"/><path d="M26.89 37.6H13.76c-2.16 0-2.83.78-2.83 1.82s.63 2.01 1.82 2.97h14.13v3.94H13.9c-2.04 0-2.97.45-2.97 1.75 0 1.04.78 2.12 1.97 3.05h13.98v3.94H7.55v-3.83h2.27c-1.67-1.45-2.64-3.05-2.64-4.87 0-1.93.97-3.05 2.64-3.57-1.75-1.56-2.64-3.05-2.64-4.98 0-3.09 2.34-4.13 5.95-4.13h13.76v3.9Z"/><path d="m26.89 21.16-2.05.22c1.56 1.52 2.38 3.24 2.38 5.24 0 2.71-1.86 4.35-5.09 4.35-2.19 0-3.87-.78-5.09-2.45-1.15-1.49-1.97-3.94-2.86-6.95-2.53-.22-3.76.33-3.76 2.31 0 1.64.97 2.57 2.68 3.12l-.78 3.2c-3.12-.86-5.13-2.75-5.13-6.54 0-4.2 2.01-5.95 6.1-5.95h9.97l3.64-.3v3.76Zm-9.93.52c.6 2.12 1.08 3.31 1.79 4.16.63.78 1.64 1.08 2.79 1.08 1.45 0 2.38-.63 2.38-1.9s-.71-2.49-1.86-3.35h-5.09Z"/><path d="M26.89 4.72H13.91c-2.12 0-2.97.63-2.97 2.01 0 1.04.56 2.04 1.93 3.24h14.02v3.94H7.55v-3.83h2.31c-1.78-1.6-2.68-3.09-2.68-5.06 0-1.64.63-2.83 1.75-3.42 1-.63 2.42-.78 4.54-.78h13.42v3.91Z"/></g><g fill="#063D2A"><path d="M312.25 177.78c2.7-1.54 4.53-3.64 5.04-6.58.29-1.72.24-3.55.09-5.33-.33-4.55-2.83-7.7-6.97-8.86-1.2-.33-2.46-.56-3.71-.58-4.15-.07-8.32-.04-12.48-.05-.11 0-.22.07-.22.07v45.05h8.57c2.03-.02 4.09.04 6.11-.2 4.47-.53 7.61-2.88 8.93-7.26.43-1.43.69-2.97.76-4.47.29-5.04-.91-9.38-6.11-11.79Zm-10.56-14.98c2.46.14 5.24-.71 6.81 1.88 1.47 2.39 1.81 5.11.42 7.66-1.58 2.88-4.42 2.63-7.23 2.46v-12.01Zm8.47 28.5c-.47 2.1-1.78 3.46-3.97 3.68-1.49.14-2.97.02-4.51.02v-13.68c1.99-.04 3.99-.25 5.87.62 1.52.71 2.3 1.96 2.66 3.51.43 1.96.4 3.91-.05 5.85"/><path d="M462.83 156.44v45.07c-2.14 0-4.24 0-6.32-.04-.24 0-.56-.36-.67-.63-2.25-6.34-4.47-12.68-6.7-19.04-.89-2.54-1.78-5.05-2.68-7.59-.07-.2-.14-.42-.22-.62-.05 0-.11.02-.14.02v27.84h-6.99v-45.07c2.28 0 4.55-.02 6.81.04.24 0 .54.47.65.8 2.14 5.74 4.24 11.5 6.34 17.28.82 2.19 1.63 4.4 2.45 6.61.09.25.2.47.45.69v-25.36h7.03Z"/><path d="M376.05 185.25c-.34-1.97-1.11-3.8-2.57-5.18-.94-.89-2.07-1.59-3.12-2.39.13-.09.34-.24.58-.38 2.36-1.5 3.95-3.62 4.31-6.39.24-1.79.2-3.7-.04-5.51-.47-3.93-2.39-6.96-6.36-8.17-1.68-.53-3.51-.74-5.27-.8-3.61-.13-7.19-.04-10.78-.04-.29 0-.58.02-.89.04v45.09h8.44c2.08-.04 4.2.04 6.27-.22 4.4-.51 7.46-2.84 8.86-7.12.94-2.92 1.09-5.91.56-8.93Zm-16.34-22.45c2.39.13 4.93-.6 6.74 1.7 1.38 1.74 1.67 5.89.56 7.77-1.68 2.88-4.46 2.7-7.3 2.54zm8.35 28.53c-.4 2.32-1.97 3.55-4.31 3.71-1.3.07-2.63 0-4.04 0v-13.82c1.38.05 2.74.02 4.06.22 2.64.38 4.22 1.9 4.47 4.57.16 1.76.13 3.59-.18 5.33Z"/><path d="M432.57 166.08c-.2-4.86-3.19-8.68-7.77-9.76-1.78-.43-3.68-.53-5.51-.45-6.05.25-10.24 4.46-10.42 10.49-.13 4.2-.04 8.41-.04 12.63h.04c0 4.31-.16 8.64.04 12.97.2 4.17 2.21 7.37 6.16 9.13 1.7.74 3.5 1.01 5.34 1.03 2.77.04 5.43-.4 7.75-2.03 3.21-2.26 4.42-5.53 4.44-9.29.04-5.31.02-10.63.02-15.94 0-2.92.07-5.85-.05-8.77Zm-7.68 24.42c-.02.85-.14 1.72-.34 2.55-.29 1.14-1.09 1.9-2.23 2.08-.98.14-2.03.18-3.03.02-1.47-.24-2.23-1.29-2.48-2.7-.13-.72-.2-1.49-.2-2.23-.02-7.55-.02-15.09 0-22.64.02-.92.13-1.85.36-2.74.33-1.27 1.23-2.01 2.54-2.21.38-.05.78-.13 1.16-.13 2.7-.04 4.13 1.2 4.18 3.89.07 4.18.02 8.37.02 12.54h.02c0 3.86.04 7.7 0 11.56Z"/><path d="M537.12 166.19c-.05-3.53-1.56-6.54-4.64-8.53-2.81-1.81-5.94-2.08-9.17-1.78-5.65.54-9.6 4.47-9.84 10.11-.2 4.31-.04 8.64-.04 12.97h-.07v11.99c0 .4.05.78.09 1.16.36 3.62 1.88 6.58 5.13 8.44 2.63 1.5 5.51 1.7 8.44 1.49 5.76-.42 10-4.57 10.11-10.27.14-8.51.13-17.07-.02-25.58Zm-7.64 9.09v3.68h-.02c0 4.08.02 8.17 0 12.25 0 .65-.2 1.3-.36 1.94-.07.31-.24.62-.43.87-1.27 1.54-2.99 1.47-4.69 1.18-1.5-.25-2.32-1.29-2.57-2.74-.11-.62-.18-1.25-.18-1.87v-23.55c.05-3.64 1.87-5.07 5.67-4.35 1.61.31 2.54 1.68 2.59 3.82.05 2.92.04 5.83.04 8.77h-.04Z"/><path d="M642.5 178.65v22.88c-1.16 0-2.32.04-3.46 0-.18 0-.4-.31-.51-.53-.4-.85-.76-1.74-1.16-2.7-.34.36-.62.71-.92 1.01-2.72 2.84-6.09 3.39-9.75 2.52s-5.96-3.3-7.01-6.85c-.36-1.25-.58-2.57-.58-3.88-.05-8.08-.04-16.16-.02-24.26 0-5.13 2.81-9.24 7.36-10.47 4.58-1.27 8.93-.82 12.46 2.77 2.12 2.17 2.99 4.93 3.19 7.88.09 1.3 0 2.61 0 3.97h-7.3c-.14-1.49-.24-2.93-.43-4.38-.09-.67-.31-1.34-.56-1.96-.65-1.52-1.97-2.21-3.8-2.08-1.5.13-2.43.91-2.86 2.54-.16.69-.27 1.41-.27 2.12q-.03 11.76 0 23.55c0 .4.02.83.09 1.23.42 2.74 2.23 3.89 4.91 3.19 1.01-.27 1.78-.89 2.12-1.88.25-.69.4-1.43.53-2.16.09-.47.07-.96.07-1.43v-5.04h-4.82v-6.03h12.72l.02-.02Z"/><path d="M339.11 156.42h-9.69c-2.79 15.02-5.56 30.02-8.35 45.05h7.54c.47-3.32.94-6.61 1.41-9.96 2.55 0 5.04.04 7.52-.02.76-.02 1.01.22 1.11.98.36 2.99.8 5.96 1.23 9h7.59c-2.79-15.05-5.56-30.04-8.35-45.05Zm-7.97 28.35c1.01-6.39 2.01-12.72 3.01-19.02h.16c1 6.3 1.99 12.61 3.01 19.04h-6.18z"/><path d="M506.98 195.5c-1.32 3.44-3.82 5.54-7.41 6.38-2.55.58-5.11.49-7.63-.22-4.62-1.32-7.55-5.27-7.57-10.34-.05-8.21-.05-16.41 0-24.62.04-6.2 4.37-10.56 10.56-10.87 1.94-.11 3.84-.04 5.67.63 3.99 1.45 6.14 4.46 6.87 8.46.38 2.1.31 4.26.45 6.47h-8.03v-1.45c-.09-1.39-.02-2.83-.31-4.18-.53-2.63-2.68-3.75-5.24-2.88-1.52.51-2.05 1.74-2.25 3.17-.09.67-.11 1.36-.11 2.05v21.85c0 .89.04 1.79.24 2.66.45 2.16 1.85 3.01 4.47 2.83 1.83-.13 2.97-1.27 3.1-3.3.11-1.85.07-3.7.09-5.54v-1.12h7.92c-.13 3.39.42 6.78-.83 10.04Z"/><path d="M403.82 192.98c-.72 4.67-4.18 8.1-9.08 8.88-2.01.33-4.04.43-6.05-.11-4.62-1.23-7.07-4.51-8.19-8.95-.27-1.01-.34-2.08-.53-3.19 2.57-.38 4.98-.72 7.34-1.05.33 1.29.51 2.54.92 3.7.89 2.45 2.75 3.5 5.11 3.03 1.87-.36 3.15-1.87 3.21-3.77.09-2.07-.58-3.93-1.97-5.4-1.61-1.72-3.37-3.3-5.14-4.86-2.21-1.92-4.47-3.79-6.14-6.23-2.46-3.59-3.08-7.54-2.05-11.68 1.03-4.18 3.97-6.47 8.08-7.28 1.92-.4 3.88-.53 5.8-.11 4.69 1.03 7.05 4.26 8.15 8.66.16.65.24 1.32.36 2.08-2.48.29-4.87.56-7.3.83-.2-.8-.34-1.56-.6-2.28-.63-1.72-1.94-2.66-3.64-2.68-2.23-.02-3.62 1.3-3.86 3.73-.2 1.97.51 3.7 1.83 5.07 1.63 1.72 3.46 3.28 5.18 4.93 1.87 1.81 3.84 3.51 5.53 5.49 2.72 3.21 3.7 7.01 3.04 11.2Z"/><path d="M601.78 163.16v11.56h9.96v6.81h-9.96v13.14h12.02v6.79h-19.89v-45.02h19.91v6.72z"/><path d="M656.7 163.18v11.52h9.88v6.81h-9.88v13.16h11.94v6.81H648.8v-45.04h19.88v6.74z"/><path d="M563.19 194.72v6.72h-19.93v-45.02h7.72v38.3z"/><path d="M588.66 194.68v6.76h-19.95v-45.02h7.76v38.26z"/></g><path fill="#063D2A" d="M280.3 193.99c-4.22 2.87-9.34 3.75-14.62 3.75-11.69 0-18.73-7.08-18.73-17.65 0-11.29 6.89-20.42 20.07-20.42 10.46 0 17.29 5.44 17.29 15.34 0 7.9-4.96 13.6-11.26 13.6-1.81 0-3.74-.46-4.48-2.82h-.11c-1.71 1.8-3.9 2.82-6.35 2.82-4.7 0-6.62-3.69-6.62-7.65 0-5.8 4.22-12.93 10.84-12.93 2.67 0 4.64.77 5.87 3.03l1.17-2.16h2.99l-4 13.03c-.37 1.13-.69 3.34 1.39 3.34 4.16 0 6.94-4.41 6.94-10.26 0-8.11-5.28-12.16-13.66-12.16-11.58 0-16.44 7.65-16.44 17.24 0 8.62 5.71 14.47 15.11 14.47 4.96 0 9.29-1.08 12.65-3.49l1.98 2.92Zm-9.87-18.74c0-2.36-1.23-4-4-4-4.8 0-7.05 5.64-7.05 9.6 0 2.98 1.28 4.46 3.42 4.46 4.96 0 7.63-6.26 7.63-10.06"/></svg>